<?xml version="1.0"?>
<svg xmlns="http://www.w3.org/2000/svg" height="512px" viewBox="0 0 512 512" width="512px" class=""><g><path d="m512 226c0 57.898438-47.101562 105-105 105h-301c-57.898438 0-106-47.101562-106-105 0-28.5 11.101562-55.902344 31.5-76 17.402344-17.101562 40.601562-27.300781 64.601562-29.398438 12.300782-35.699218 46.199219-60.601562 84.898438-60.601562 7.199219 0 14.097656.902344 21 2.402344 13.5-21 32.101562-37.800782 54-48.003906 18.300781-9.597657 38.699219-14.398438 60-14.398438 72.898438 0 133.300781 57.898438 136 130.199219 36.300781 17.101562 60 55 60 95.800781zm0 0" fill="#ececf1" data-original="#ECECF1" class=""/><path d="m512 226c0 57.898438-47.101562 105-105 105h-151v-316.601562c18.300781-9.597657 38.699219-14.398438 60-14.398438 72.898438 0 133.300781 57.898438 136 130.199219 36.300781 17.101562 60 55 60 95.800781zm0 0" fill="#d3d3d8" data-original="#D3D3D8" class="" style="fill:#D3D3D8"/><path d="m358 367-90-120c-3-3.601562-7.5-5.699219-12-5.699219s-9 2.097657-12 5.699219l-90 120c-3.300781 4.5-3.902344 10.5-1.5 15.597656 2.699219 5.101563 7.800781 8.402344 13.5 8.402344h45v106c0 8.402344 6.597656 15 15 15h60c8.402344 0 15-6.597656 15-15v-106h45c5.699219 0 10.800781-3.300781 13.5-8.402344 2.402344-5.097656 1.800781-11.097656-1.5-15.597656zm0 0" fill="#75efff" data-original="#75EFFF" class="" style="fill:#EF533D" data-old_color="#EF523C"/><path d="m359.5 382.597656c-2.699219 5.101563-7.800781 8.402344-13.5 8.402344h-45v106c0 8.402344-6.597656 15-15 15h-30v-270.699219c4.5 0 9 2.097657 12 5.699219l90 120c3.300781 4.5 3.902344 10.5 1.5 15.597656zm0 0" fill="#00ceee" data-original="#00CEEE" class="active-path" style="fill:#DA827F" data-old_color="#DA817E"/></g> </svg>
