<svg height="511pt" viewBox="0 -54 511.9994 511" width="511pt" xmlns="http://www.w3.org/2000/svg"><path d="m411.347656 219.101562c-3.863281 0-7.199218-2.894531-7.660156-6.828124-7.898438-67.5-71.078125-118.398438-146.957031-118.398438-75.820313 0-138.976563 50.851562-146.898438 118.285156-.5 4.238282-4.335937 7.273438-8.574219 6.773438-4.234374-.5-7.265624-4.339844-6.769531-8.578125 4.253907-36.179688 23.105469-69.566407 53.082031-94.011719 29.992188-24.457031 68.757813-37.925781 109.160157-37.925781 40.429687 0 79.214843 13.484375 109.222656 37.964843 29.988281 24.46875 48.839844 57.886719 53.074219 94.09375.496094 4.238282-2.535156 8.074219-6.773438 8.570313-.300781.039063-.605468.054687-.90625.054687zm0 0" fill="#2e3c51"/><g fill-rule="evenodd"><path d="m39.914062 312.191406c-.117187-1.3125-10.207031-42.65625-10.207031-43.972656l-7.242187.644531c-13.488282 1.167969-23.566406 13.203125-22.3671878 26.699219l4.3515628 49.367188c1.167969 13.496093 13.199219 23.542968 26.691406 22.375l8.613281-.757813c-1.375-4.03125.160156-54.355469.160156-54.355469zm0 0" fill="#bae0f2"/><path d="m511.902344 295.5625c1.199218-13.496094-8.878906-25.53125-22.367188-26.699219l-7.214844-.644531c-.027343 1.316406-16.417968 45.675781-16.417968 45.675781s7.714844 48.617188 6.34375 52.648438l8.644531.757812c13.492187 1.167969 25.492187-8.878906 26.691406-22.375zm0 0" fill="#bae0f2"/><path d="m453.234375 178.628906c-9.722656-99.988281-93.972656-178.128906-196.503906-178.128906-104.691407 0-190.316407 81.5-197.003907 184.527344l-.144531 33.882812 26.019531 16.621094 15.683594-24.1875v-14.398438c.554688-85.414062 69.941406-154.5 155.445313-154.5 85.882812 0 155.472656 69.640626 155.472656 155.550782v13.464844l19.363281 37.304687 21.667969-29.445313zm0 0" fill="#616d80"/><path d="m256.730469.5c-104.691407 0-190.316407 81.5-197.003907 184.527344l-.144531 33.882812c4.03125-2.042968 8.378907-3.621094 12.9375-4.613281l.085938-24.886719c6.6875-103.03125 92.3125-184.527344 197.003906-184.527344 19.855469 0 39.042969 2.917969 57.121094 8.382813-21.757813-8.265625-45.355469-12.765625-70-12.765625zm0 0" fill="#3f4c63"/><path d="m16.886719 342.621094-4.351563-49.367188c-.960937-10.867187 5.40625-20.796875 14.984375-24.859375l-5.054687.46875c-13.492188 1.167969-23.566406 13.203125-22.3671878 26.699219l4.3515628 49.363281c1.167969 13.496094 13.199219 23.546875 26.691406 22.378907l8.613281-.761719c-.175781-.523438-.351562-1.019531-.496094-1.546875-11.652343-1.023438-21.320312-10.339844-22.371093-22.375zm0 0" fill="#93baf0"/><path d="m495.113281 342.621094 4.347657-49.367188c.964843-10.867187-5.398438-20.796875-14.980469-24.859375l5.054687.46875c13.492188 1.167969 23.566406 13.203125 22.367188 26.699219l-4.320313 49.363281c-1.199219 13.496094-13.203125 23.546875-26.691406 22.378907l-8.644531-.761719c.175781-.523438.347656-1.019531.496094-1.546875 11.652343-1.023438 21.320312-10.339844 22.371093-22.375zm0 0" fill="#93baf0"/><path d="m147.421875 367.449219-11.269531-127.886719c-1.488282-17.085938-16.703125-29.824219-33.789063-28.332031l-.203125.027343-.875.085938-21.992187 1.929688c-7.066407.613281-13.722657 2.601562-19.710938 5.636718-18.105469 9.171875-30.195312 28.160156-29.875 49.308594 0 1.316406.089844 2.660156.203125 3.972656l7.183594 81.707032c.382812 4.378906 1.285156 8.617187 2.660156 12.644531 7.855469 23.164062 30.867188 38.96875 56.242188 36.75l23.097656-2.046875c17.085938-1.488282 29.820312-16.707032 28.328125-33.796875zm0 0" fill="#eb5757"/><path d="m432.734375 213.273438-20.53125-1.8125-.84375-.054688-1.726563-.175781c-17.082031-1.492188-32.296874 11.246093-33.785156 28.335937l-11.273437 127.882813c-1.488281 17.089843 11.246093 32.308593 28.328125 33.796875l23.097656 2.046875c25.378906 2.21875 48.390625-13.585938 56.246094-36.75 1.371094-4.03125 2.277344-8.265625 2.65625-12.648438l7.214844-81.703125c.117187-1.316406.171874-2.65625.203124-3.972656.292969-20.828125-11.449218-39.550781-29.085937-48.898438-6.191406-3.273437-13.113281-5.402343-20.5-6.046874zm0 0" fill="#eb5757"/><path d="m55.492188 263.488281c-.144532-8.617187 1.8125-16.855469 5.34375-24.246093 5.171874-10.75 13.816406-19.628907 24.53125-25.089844 1.257812-.613282 2.542968-1.230469 3.855468-1.753906l-9.929687.875c-7.066407.613281-13.722657 2.601562-19.710938 5.636718-18.105469 9.171875-30.195312 28.160156-29.875 49.308594 0 1.316406.089844 2.660156.203125 3.972656l7.183594 81.707032c.382812 4.378906 1.285156 8.617187 2.660156 12.644531 7.855469 23.164062 30.867188 38.96875 56.242188 36.75l23.097656-2.046875c4.265625-.378906 8.265625-1.605469 11.828125-3.503906l-9.140625.820312c-24.644531 2.160156-47.042969-12.707031-55.511719-34.792969-.265625-.640625-.496093-1.3125-.730469-1.984375-1.375-4.003906-2.277343-8.238281-2.65625-12.621094l-7.183593-81.703124c-.058594-.496094-.089844-1.019532-.117188-1.519532-.058593-.816406-.089843-1.636718-.089843-2.453125zm0 0" fill="#bf3961"/><path d="m456.503906 263.488281c.148438-8.617187-1.777344-16.855469-5.34375-24.246093-5.167968-10.75-13.8125-19.628907-24.527344-25.089844-1.257812-.613282-2.542968-1.230469-3.855468-1.753906l9.957031.875c7.066406.613281 13.695313 2.601562 19.683594 5.636718 18.105469 9.171875 30.195312 28.160156 29.902343 49.308594-.027343 1.316406-.085937 2.660156-.203124 3.972656l-7.210938 81.707032c-.382812 4.378906-1.285156 8.617187-2.660156 12.644531-7.855469 23.164062-30.867188 38.96875-56.242188 36.75l-23.097656-2.046875c-4.265625-.378906-8.265625-1.605469-11.828125-3.503906l9.140625.820312c24.644531 2.160156 47.046875-12.707031 55.542969-34.792969.234375-.640625.496093-1.3125.699219-1.984375 1.375-4.003906 2.28125-8.238281 2.660156-12.621094l7.183594-81.703124c.058593-.496094.085937-1.019532.117187-1.519532.054687-.816406.082031-1.636718.082031-2.453125zm0 0" fill="#bf3961"/></g></svg>