<svg height="512pt" viewBox="0 0 512 512" width="512pt" xmlns="http://www.w3.org/2000/svg"><path d="m351.460938 230.460938c.371093-.375.71875-.761719 1.042968-1.164063 23.800782-24.351563 38.496094-57.636719 38.496094-94.296875 0-74.4375-60.5625-135-135-135s-135 60.5625-135 135c0 36.660156 14.695312 69.945312 38.496094 94.300781.324218.398438.671875.785157 1.042968 1.160157.375.371093.761719.71875 1.164063 1.046874 24.351563 23.796876 57.636719 38.492188 94.296875 38.492188s69.945312-14.695312 94.300781-38.496094c.398438-.324218.785157-.671875 1.160157-1.042968zm9.539062-95.460938c0 23.550781-7.792969 45.316406-20.9375 62.851562l-69.0625-69.066406v-97.710937c50.816406 7.304687 90 51.121093 90 103.925781zm-120 36.214844v67.710937c-17.761719-2.554687-34.105469-9.5625-47.847656-19.863281zm30 0 47.847656 47.847656c-13.742187 10.300781-30.085937 17.308594-47.847656 19.863281zm-30-140.140625v97.710937l-69.0625 69.066406c-13.144531-17.535156-20.9375-39.300781-20.9375-62.851562 0-52.804688 39.183594-96.621094 90-103.925781zm0 0" fill="#00d7df"/><path d="m195.082031 292c-24.855469 0-45.082031 20.226562-45.082031 45.082031v20.828125l-60-66.667968v-94.242188c0-24.8125-20.1875-45-45-45s-45 20.1875-45 45v140c0 2.304688.53125 4.574219 1.550781 6.640625l79 160c2.527344 5.121094 7.738281 8.359375 13.449219 8.359375h132c3.992188 0 7.820312-1.589844 10.632812-4.421875 2.816407-2.828125 4.386719-6.664063 4.367188-10.65625l-.835938-160.089844c-.136718-24.71875-20.359374-44.832031-45.082031-44.832031zm0 0" fill="#ffbeaa"/><path d="m467 152c-24.8125 0-45 20.1875-45 45v94.242188l-60 66.667968v-20.824218c0-24.859376-20.226562-45.085938-45.082031-45.085938-24.722657 0-44.945313 20.113281-45.082031 44.839844l-.835938 160.082031c-.019531 3.992187 1.550781 7.828125 4.367188 10.65625 2.8125 2.832031 6.640624 4.421875 10.632812 4.421875h132c5.710938 0 10.921875-3.238281 13.449219-8.359375l79-160c1.019531-2.066406 1.550781-4.335937 1.550781-6.640625v-140c0-24.8125-20.1875-45-45-45zm0 0" fill="#faa68f"/><path d="m256 0v270c36.660156 0 69.945312-14.695312 94.300781-38.496094.398438-.324218.785157-.671875 1.160157-1.042968.371093-.375.71875-.761719 1.042968-1.160157 23.800782-24.355469 38.496094-57.640625 38.496094-94.300781 0-74.4375-60.5625-135-135-135zm15 238.925781v-67.710937l47.847656 47.847656c-13.742187 10.300781-30.085937 17.308594-47.847656 19.863281zm69.0625-41.074219-69.0625-69.066406v-97.710937c50.816406 7.304687 90 51.121093 90 103.925781 0 23.550781-7.792969 45.316406-20.9375 62.851562zm0 0" fill="#00c7ce"/></svg>